<svg width="62" height="57" viewBox="0 0 62 57" fill="none" xmlns="http://www.w3.org/2000/svg">
<path d="M15.55 47.45C13.65 47.45 11.75 47.3833 9.85 47.25C7.98333 47.15 6.03333 46.8833 4 46.45V12.85C5.6 12.55 7.35 12.3333 9.25 12.2C11.15 12.0333 12.9167 11.95 14.55 11.95C16.75 11.95 18.7667 12.1167 20.6 12.45C22.4667 12.75 24.0667 13.2833 25.4 14.05C26.7333 14.8167 27.7667 15.8333 28.5 17.1C29.2667 18.3333 29.65 19.8667 29.65 21.7C29.65 24.4667 28.3167 26.65 25.65 28.25C27.85 29.0833 29.35 30.2167 30.15 31.65C30.95 33.0833 31.35 34.7 31.35 36.5C31.35 40.1333 30.0167 42.8667 27.35 44.7C24.7167 46.5333 20.7833 47.45 15.55 47.45ZM11.6 31.9V40.85C12.1667 40.9167 12.7833 40.9667 13.45 41C14.1167 41.0333 14.85 41.05 15.65 41.05C17.9833 41.05 19.8667 40.7167 21.3 40.05C22.7333 39.3833 23.45 38.15 23.45 36.35C23.45 34.75 22.85 33.6167 21.65 32.95C20.45 32.25 18.7333 31.9 16.5 31.9H11.6ZM11.6 25.95H15.4C17.8 25.95 19.5167 25.65 20.55 25.05C21.5833 24.4167 22.1 23.4167 22.1 22.05C22.1 20.65 21.5667 19.6667 20.5 19.1C19.4333 18.5333 17.8667 18.25 15.8 18.25C15.1333 18.25 14.4167 18.2667 13.65 18.3C12.8833 18.3 12.2 18.3333 11.6 18.4V25.95ZM47.1438 41.8C47.8771 41.8 48.5771 41.7833 49.2438 41.75C49.9104 41.7167 50.4438 41.6667 50.8438 41.6V35.95C50.5438 35.8833 50.0938 35.8167 49.4938 35.75C48.8938 35.6833 48.3438 35.65 47.8438 35.65C47.1438 35.65 46.4771 35.7 45.8438 35.8C45.2438 35.8667 44.7104 36.0167 44.2438 36.25C43.7771 36.4833 43.4104 36.8 43.1438 37.2C42.8771 37.6 42.7438 38.1 42.7438 38.7C42.7438 39.8667 43.1271 40.6833 43.8938 41.15C44.6938 41.5833 45.7771 41.8 47.1438 41.8ZM46.5438 20C48.7438 20 50.5771 20.25 52.0438 20.75C53.5104 21.25 54.6771 21.9667 55.5438 22.9C56.4438 23.8333 57.0771 24.9667 57.4438 26.3C57.8104 27.6333 57.9938 29.1167 57.9938 30.75V46.25C56.9271 46.4833 55.4438 46.75 53.5438 47.05C51.6438 47.3833 49.3438 47.55 46.6438 47.55C44.9438 47.55 43.3938 47.4 41.9938 47.1C40.6271 46.8 39.4438 46.3167 38.4438 45.65C37.4438 44.95 36.6771 44.05 36.1438 42.95C35.6104 41.85 35.3438 40.5 35.3438 38.9C35.3438 37.3667 35.6438 36.0667 36.2438 35C36.8771 33.9333 37.7104 33.0833 38.7438 32.45C39.7771 31.8167 40.9604 31.3667 42.2938 31.1C43.6271 30.8 45.0104 30.65 46.4437 30.65C47.4104 30.65 48.2604 30.7 48.9938 30.8C49.7604 30.8667 50.3771 30.9667 50.8438 31.1V30.4C50.8438 29.1333 50.4604 28.1167 49.6938 27.35C48.9271 26.5833 47.5938 26.2 45.6938 26.2C44.4271 26.2 43.1771 26.3 41.9438 26.5C40.7104 26.6667 39.6438 26.9167 38.7438 27.25L37.7938 21.25C38.2271 21.1167 38.7604 20.9833 39.3938 20.85C40.0604 20.6833 40.7771 20.55 41.5438 20.45C42.3104 20.3167 43.1104 20.2167 43.9438 20.15C44.8104 20.05 45.6771 20 46.5438 20Z" fill="white"/>
<rect x="36" y="13" width="23" height="4" fill="#F58F29"/>
</svg>
